<?xml version="1.0" encoding="UTF-8"?>
<svg id="_Слой_1" data-name="Слой 1" xmlns="http://www.w3.org/2000/svg" viewBox="0 0 900 700">
  <defs>
    <style>
      .cls-1 {
        fill: #fff;
      }
    </style>
  </defs>
  <polygon class="cls-1" points="800 0 800 570.95 651.71 450 493.5 450 800 700 800 700 800 700 900 700 900 652.52 900 0 800 0"/>
  <polygon class="cls-1" points="406.51 250 222.6 100 222.6 100 200 81.56 200 81.56 100 0 100 0 100 0 0 0 0 700 100 700 100 338.63 100 302.23 100 129.05 248.29 250 406.51 250"/>
  <path class="cls-1" d="M550,400s200,0,200-200S550,0,550,0h-291.79l122.6,100h169.18s100,0,100,100-100,100-100,100H150v79.51l392.01,320.49h157.99l-366.94-300h216.94Z"/>
</svg>